<svg xmlns="http://www.w3.org/2000/svg" version="1.1" height="224" width="632" viewBox="0 0 632 224" class="diagram" text-anchor="middle" font-family="monospace" font-size="13px">
<path d="M 32,48 L 32,144" fill="none" stroke="black"/>
<path d="M 32,176 L 32,208" fill="none" stroke="black"/>
<path d="M 176,48 L 176,144" fill="none" stroke="black"/>
<path d="M 176,176 L 176,208" fill="none" stroke="black"/>
<path d="M 104,16 L 128,16" fill="none" stroke="black"/>
<path d="M 32,48 L 176,48" fill="none" stroke="black"/>
<path d="M 8,64 L 24,64" fill="none" stroke="black"/>
<path d="M 32,80 L 176,80" fill="none" stroke="black"/>
<path d="M 8,96 L 24,96" fill="none" stroke="black"/>
<path d="M 32,112 L 176,112" fill="none" stroke="black"/>
<path d="M 8,128 L 24,128" fill="none" stroke="black"/>
<path d="M 32,144 L 176,144" fill="none" stroke="black"/>
<path d="M 32,176 L 176,176" fill="none" stroke="black"/>
<path d="M 32,208 L 176,208" fill="none" stroke="black"/>
<polygon class="arrowhead" points="112,16 100,10.4 100,21.6" fill="black" transform="rotate(180,104,16)"/>
<polygon class="arrowhead" points="16,128 4,122.4 4,133.6" fill="black" transform="rotate(180,8,128)"/>
<polygon class="arrowhead" points="16,96 4,90.4 4,101.6" fill="black" transform="rotate(180,8,96)"/>
<polygon class="arrowhead" points="16,64 4,58.4 4,69.6" fill="black" transform="rotate(180,8,64)"/>
<g class="text">
<text x="88" y="20">...</text>
<text x="384" y="20">El encabezado termina aquí, comienza el cuerpo de la palabra.</text>
<text x="108" y="36">palabra definida</text>
<text x="80" y="68">0x80490A3</text>
<text x="408" y="68">Puntero especial al código del *intérprete de palabras*</text>
<text x="80" y="100">0x804A2F0</text>
<text x="392" y="100">Dirección del código de otras palabra de la palabra</text>
<text x="80" y="132">0x804A2F0</text>
<text x="228" y="132">Y otra ...</text>
<text x="56" y="164">...</text>
<text x="60" y="196">EXIT</text>
</g>
</svg>
